<svg version="1.0" xmlns="http://www.w3.org/2000/svg"
 width="640.000000pt" height="640.000000pt" viewBox="0 0 640.000000 640.000000"
 preserveAspectRatio="xMidYMid meet">

<g transform="translate(0.000000,640.000000) scale(0.100000,-0.100000)"
fill="#000000" stroke="none">
<path d="M3204 5996 c-144 -36 -250 -173 -274 -355 -19 -144 15 -376 67 -445
14 -21 15 -20 7 4 -19 66 -24 105 -24 225 0 236 31 346 120 429 69 64 104 80
180 81 109 0 183 -58 249 -195 23 -49 26 -67 25 -160 0 -87 -5 -120 -28 -190
-55 -169 -182 -376 -316 -517 -49 -51 -91 -101 -95 -113 -8 -26 -13 -25 -66 4
-24 14 -73 32 -109 41 -195 48 -473 209 -589 341 -91 103 -132 231 -111 346
14 73 28 104 67 139 53 50 89 62 172 57 94 -6 156 -34 221 -99 91 -91 210
-294 229 -390 l9 -44 1 51 c2 92 -72 270 -163 391 -167 222 -497 213 -570 -15
-89 -277 70 -521 469 -719 109 -55 161 -73 275 -97 41 -9 90 -25 107 -36 31
-18 32 -22 27 -64 -7 -45 10 -116 27 -116 6 0 7 9 2 23 -11 31 -10 91 2 97 6
3 18 -17 27 -45 17 -49 17 -49 18 -15 0 19 -9 50 -20 68 -21 33 -21 34 -1 65
11 18 55 64 99 104 128 116 273 343 332 522 63 188 50 344 -40 479 -87 130
-198 181 -326 148z"/>
<path d="M3530 4940 c-50 -9 -132 -56 -184 -106 -165 -157 -187 -388 -70 -743
43 -130 58 -163 143 -297 18 -29 35 -70 38 -92 5 -34 2 -41 -15 -46 -10 -4
-27 -14 -35 -24 -21 -23 -50 -92 -38 -92 5 0 14 14 21 30 7 17 24 40 39 51 23
18 26 19 29 5 2 -9 -6 -32 -17 -51 -11 -19 -16 -35 -11 -35 14 0 39 41 50 82
13 46 23 48 205 46 112 -1 161 3 245 21 378 81 587 226 645 446 17 68 20 163
5 216 -26 93 -122 173 -232 191 -138 22 -270 -27 -392 -147 -116 -113 -217
-262 -215 -320 0 -13 8 -3 21 25 30 63 245 274 327 322 199 115 415 43 444
-147 8 -54 -16 -164 -50 -226 -100 -184 -453 -334 -818 -347 -77 -2 -148 -8
-157 -13 -14 -8 -19 -4 -24 18 -13 59 -18 71 -66 156 -114 198 -190 535 -159
701 33 175 168 316 304 316 136 0 247 -135 247 -301 0 -136 -54 -358 -105
-434 -30 -43 -28 -55 3 -22 66 71 140 249 162 396 37 236 -141 457 -340 421z"/>
<path d="M2960 3450 c-85 -5 -245 -16 -356 -25 -110 -8 -258 -15 -328 -15
-139 0 -216 -13 -216 -37 0 -11 6 -13 23 -8 12 5 105 9 207 11 102 1 280 7
395 13 415 21 493 22 715 12 429 -20 719 -76 936 -181 122 -59 159 -96 150
-149 -7 -42 -39 -88 -58 -82 -7 2 -22 4 -33 4 -11 0 -72 13 -135 28 -132 32
-343 63 -545 80 -179 15 -667 15 -855 0 -461 -37 -873 -122 -1073 -223 -63
-32 -82 -30 -117 7 -23 24 -23 25 -5 45 31 35 124 80 245 121 209 70 728 171
1051 204 253 26 265 32 69 34 -415 2 -914 -64 -1203 -160 -82 -27 -201 -86
-223 -110 -9 -10 -26 -19 -36 -19 -30 0 -41 -45 -34 -142 19 -264 118 -657
219 -878 14 -30 26 -52 26 -49 1 4 -15 65 -34 135 -47 172 -80 336 -105 527
-23 183 -23 187 -10 187 6 0 10 -7 10 -15 0 -8 7 -15 15 -15 9 0 41 -13 73
-29 157 -78 371 -120 732 -141 728 -43 1588 66 1897 240 30 17 56 30 58 28 3
-3 -8 -65 -61 -338 -97 -490 -243 -806 -472 -1022 -243 -227 -525 -312 -1047
-312 -179 0 -207 2 -265 21 -35 12 -66 20 -68 18 -2 -2 20 -17 50 -34 122 -71
310 -104 593 -105 177 -1 197 1 299 28 131 34 261 88 344 145 57 38 66 41 129
41 76 0 148 -17 209 -48 85 -43 84 -82 -4 -135 -145 -89 -373 -151 -717 -198
-296 -40 -862 -37 -1065 6 -137 28 -128 27 -100 14 39 -17 185 -46 305 -61
166 -20 683 -17 850 5 168 23 399 69 506 102 101 32 258 107 287 138 12 13 25
37 28 55 6 28 2 37 -30 66 -45 43 -131 76 -218 83 -38 3 -68 9 -68 13 0 52
314 27 439 -34 128 -63 99 -159 -85 -282 -47 -31 -133 -76 -192 -100 -494
-200 -999 -247 -1757 -163 -323 35 -500 73 -570 122 -24 17 -27 17 -16 3 57
-70 384 -148 831 -197 169 -19 584 -16 750 4 419 53 838 190 1015 334 126 102
160 210 86 271 -62 51 -227 92 -368 92 l-75 0 44 49 c36 42 45 47 55 35 9 -13
13 -10 22 18 12 36 97 124 194 202 78 62 157 101 372 181 237 89 269 104 340
158 136 103 245 317 245 479 0 70 -31 157 -73 204 -145 166 -483 99 -666 -131
-24 -30 -46 -54 -48 -52 -2 2 7 91 19 198 19 163 26 199 45 228 46 68 55 152
22 211 -23 41 -108 101 -204 143 -128 55 -342 105 -575 133 -154 18 -581 26
-790 14z m995 -446 c139 -25 340 -71 319 -73 -6 -1 -78 13 -160 29 -179 37
-389 70 -438 70 -20 0 -36 4 -36 8 0 12 157 -5 315 -34z m-510 15 c77 -5 156
-14 175 -19 23 -6 4 -6 -55 -2 -144 11 -983 7 -1042 -5 -29 -6 -53 -7 -53 -3
0 32 675 52 975 29z m242 -35 c-3 -3 -12 -4 -19 -1 -8 3 -5 6 6 6 11 1 17 -2
13 -5z m-778 -18 c-2 -3 -105 -16 -229 -31 -481 -56 -678 -93 -842 -160 -10
-4 -18 -3 -18 3 0 15 158 69 267 91 203 41 841 116 822 97z m701 -67 c130 -12
262 -30 257 -35 -2 -2 -64 3 -138 12 -74 9 -262 19 -419 22 -247 6 -268 8
-160 13 144 6 310 2 460 -12z m-660 -30 c-109 -9 -236 -23 -589 -69 -157 -20
-219 -21 -94 -1 304 48 581 79 708 78 l90 0 -115 -8z m1060 -76 c-167 -55
-632 -99 -1220 -117 -224 -6 -58 9 320 29 450 24 796 63 895 99 22 8 49 14 60
14 11 0 -14 -11 -55 -25z m-637 -20 c-7 -2 -21 -2 -30 0 -10 3 -4 5 12 5 17 0
24 -2 18 -5z m-80 -10 c-13 -2 -33 -2 -45 0 -13 2 -3 4 22 4 25 0 35 -2 23 -4z
m-90 -10 c-13 -2 -33 -2 -45 0 -13 2 -3 4 22 4 25 0 35 -2 23 -4z m-976 -33
c87 -17 187 -35 223 -40 l65 -9 -80 5 c-44 3 -136 16 -205 29 -69 13 -152 28
-185 33 -55 9 -57 10 -18 11 23 0 113 -13 200 -29z m881 23 c-10 -2 -28 -2
-40 0 -13 2 -5 4 17 4 22 1 32 -1 23 -4z m1936 -79 c67 -33 81 -61 81 -167 0
-85 -3 -98 -34 -162 -24 -49 -56 -92 -106 -141 -82 -81 -135 -110 -329 -179
-155 -55 -287 -109 -345 -141 -24 -13 -46 -23 -48 -21 -2 2 5 24 16 49 32 75
88 257 112 367 23 100 26 106 86 176 106 125 209 198 326 230 69 20 190 14
241 -11z"/>
</g>
</svg>
